<?xml version="1.0" encoding="utf-8"?>
<svg width="240" height="227" viewBox="0 0 240 227" fill="none" stroke="none" version="1.1" xmlns:xlink="http://www.w3.org/1999/xlink" xmlns="http://www.w3.org/2000/svg">
<path
                                fill="none"
                                stroke="#fff4"
                                stroke-width="1"
                                d="M 200,100 130.9,195.1 19.1,158.8 19.1,41.2 130.9,4.9 Z"
                            ></path>
                            <path
                                fill="none"
                                stroke="#fff4"
                                stroke-width="1"
                                d="M 166,100 120.4,162.8 46.6,138.8 46.6,61.2 120.4,37.2 Z"
                            ></path>
                            <path
                                fill="none"
                                stroke="#fff4"
                                stroke-width="1"
                                d="M 133,100 110.2,131.4 73.3,119.4 73.3,80.6 110.2,68.6 Z"
                            ></path>
                            <line stroke="#fff4" stroke-width="1" x1="100" y1="100" x2="200" y2="100"></line>
                            <line stroke="#fff4" stroke-width="1" x1="100" y1="100" x2="130.9" y2="195.1"></line>
                            <line stroke="#fff4" stroke-width="1" x1="100" y1="100" x2="19.1" y2="158.8"></line>
                            <line stroke="#fff4" stroke-width="1" x1="100" y1="100" x2="19.1" y2="41.2"></line>
                            <line stroke="#fff4" stroke-width="1" x1="100" y1="100" x2="130.9" y2="4.9"></line>
  <g id="SingleElement">
    <g style="mix-blend-mode:normal;" transform="translate(134 0)">
      <path d="M1.17898 9.6875L0.255682 9.6875L2.92614 2.41477L3.83523 2.41477L6.50568 9.6875L5.58239 9.6875L4.85085 7.62784L1.91051 7.62784L1.17898 9.6875ZM2.1875 6.84659L4.57386 6.84659L3.40909 3.56534L3.35227 3.56534L2.1875 6.84659ZM7.64205 9.6875L7.64205 2.41477L8.52273 2.41477L8.52273 8.90625L11.9034 8.90625L11.9034 9.6875L7.64205 9.6875ZM18.8352 4.6875L17.9545 4.6875Q17.848 4.18324 17.5462 3.83878Q17.2443 3.49432 16.8182 3.31676Q16.392 3.1392 15.9091 3.1392Q15.2486 3.1392 14.7141 3.47301Q14.1797 3.80682 13.8654 4.45668Q13.5511 5.10653 13.5511 6.05114Q13.5511 6.99574 13.8654 7.6456Q14.1797 8.29545 14.7141 8.62926Q15.2486 8.96307 15.9091 8.96307Q16.392 8.96307 16.8182 8.78551Q17.2443 8.60795 17.5462 8.26349Q17.848 7.91903 17.9545 7.41477L18.8352 7.41477Q18.7003 8.16051 18.2848 8.69141Q17.8693 9.2223 17.255 9.50462Q16.6406 9.78693 15.9091 9.78693Q14.9787 9.78693 14.2543 9.33239Q13.5298 8.87784 13.1143 8.03977Q12.6989 7.2017 12.6989 6.05114Q12.6989 4.90057 13.1143 4.0625Q13.5298 3.22443 14.2543 2.76989Q14.9787 2.31534 15.9091 2.31534Q16.6406 2.31534 17.255 2.59766Q17.8693 2.87997 18.2848 3.41087Q18.7003 3.94176 18.8352 4.6875Z" style="fill:#FFFFFF;fill-opacity:0.498;" />
    </g>
    <g style="mix-blend-mode:normal;" transform="translate(217 109)">
      <path d="M2.2017 9.6875L0.213068 2.41477L1.10795 2.41477L2.62784 8.33807L2.69886 8.33807L4.24716 2.41477L5.24148 2.41477L6.78977 8.33807L6.8608 8.33807L8.38068 2.41477L9.27557 2.41477L7.28693 9.6875L6.37784 9.6875L4.77273 3.89205L4.71591 3.89205L3.1108 9.6875L2.2017 9.6875ZM10.3693 9.6875L10.3693 2.41477L12.8267 2.41477Q13.679 2.41477 14.2259 2.70419Q14.7727 2.99361 15.0355 3.49787Q15.2983 4.00213 15.2983 4.64489Q15.2983 5.36932 14.9663 5.90732Q14.6342 6.44531 13.9382 6.68324L15.5824 9.6875L14.5597 9.6875L13.0256 6.84304Q12.9368 6.84659 12.8409 6.84659L11.25 6.84659L11.25 9.6875L10.3693 9.6875ZM11.25 6.05114L12.8125 6.05114Q13.6861 6.05114 14.0589 5.67472Q14.4318 5.2983 14.4318 4.64489Q14.4318 3.98793 14.0572 3.59197Q13.6825 3.19602 12.7983 3.19602L11.25 3.19602L11.25 6.05114ZM16.3636 3.19602L16.3636 2.41477L21.8182 2.41477L21.8182 3.19602L19.5313 3.19602L19.5313 9.6875L18.6506 9.6875L18.6506 3.19602L16.3636 3.19602Z" style="fill:#FFFFFF;fill-opacity:0.498;" />
    </g>
    <g style="mix-blend-mode:normal;" transform="translate(134 215)">
      <path d="M6.73295 4.6875L5.85227 4.6875Q5.74574 4.18324 5.44389 3.83878Q5.14205 3.49432 4.71591 3.31676Q4.28977 3.1392 3.80682 3.1392Q3.14631 3.1392 2.61186 3.47301Q2.07741 3.80682 1.76314 4.45668Q1.44886 5.10653 1.44886 6.05114Q1.44886 6.99574 1.76314 7.6456Q2.07741 8.29545 2.61186 8.62926Q3.14631 8.96307 3.80682 8.96307Q4.28977 8.96307 4.71591 8.78551Q5.14205 8.60795 5.44389 8.26349Q5.74574 7.91903 5.85227 7.41477L6.73295 7.41477Q6.59801 8.16051 6.18253 8.69141Q5.76705 9.2223 5.1527 9.50462Q4.53835 9.78693 3.80682 9.78693Q2.87642 9.78693 2.15199 9.33239Q1.42756 8.87784 1.01207 8.03977Q0.596591 7.2017 0.596591 6.05114Q0.596591 4.90057 1.01207 4.0625Q1.42756 3.22443 2.15199 2.76989Q2.87642 2.31534 3.80682 2.31534Q4.53835 2.31534 5.1527 2.59766Q5.76705 2.87997 6.18253 3.41087Q6.59801 3.94176 6.73295 4.6875ZM8.15341 2.41477L9.20455 2.41477L11.6761 8.4517L11.7614 8.4517L14.233 2.41477L15.2841 2.41477L15.2841 9.6875L14.4602 9.6875L14.4602 4.16193L14.3892 4.16193L12.1165 9.6875L11.321 9.6875L9.0483 4.16193L8.97727 4.16193L8.97727 9.6875L8.15341 9.6875L8.15341 2.41477ZM17.0455 9.6875L17.0455 2.41477L19.5881 2.41477Q20.348 2.41477 20.8416 2.67578Q21.3352 2.93679 21.5767 3.37535Q21.8182 3.81392 21.8182 4.34659Q21.8182 4.81534 21.6531 5.12074Q21.4879 5.42614 21.2198 5.60369Q20.9517 5.78125 20.6392 5.86648L20.6392 5.9375Q20.973 5.95881 21.3104 6.17188Q21.6477 6.38494 21.875 6.78267Q22.1023 7.1804 22.1023 7.75568Q22.1023 8.30256 21.8537 8.73935Q21.6051 9.17614 21.0689 9.43182Q20.5327 9.6875 19.6733 9.6875L17.0455 9.6875ZM17.9261 8.90625L19.6733 8.90625Q20.5362 8.90625 20.9002 8.57067Q21.2642 8.23509 21.2642 7.75568Q21.2642 7.38636 21.076 7.07209Q20.8878 6.75781 20.5398 6.56783Q20.1918 6.37784 19.7159 6.37784L17.9261 6.37784L17.9261 8.90625ZM17.9261 5.6108L19.5597 5.6108Q20.1563 5.6108 20.5682 5.26634Q20.9801 4.92188 20.9801 4.34659Q20.9801 3.86719 20.6463 3.5316Q20.3125 3.19602 19.5881 3.19602L17.9261 3.19602L17.9261 5.6108Z" style="fill:#FFFFFF;fill-opacity:0.498;" />
    </g>
    <g style="mix-blend-mode:normal;" transform="translate(0 177)">
      <path d="M0.880682 9.6875L0.880682 2.41477L3.33807 2.41477Q4.19034 2.41477 4.73722 2.70419Q5.28409 2.99361 5.54688 3.49787Q5.80966 4.00213 5.80966 4.64489Q5.80966 5.36932 5.47763 5.90732Q5.1456 6.44531 4.44957 6.68324L6.09375 9.6875L5.07102 9.6875L3.53693 6.84304Q3.44815 6.84659 3.35227 6.84659L1.76136 6.84659L1.76136 9.6875L0.880682 9.6875ZM1.76136 6.05114L3.32386 6.05114Q4.19744 6.05114 4.57031 5.67472Q4.94318 5.2983 4.94318 4.64489Q4.94318 3.98793 4.56854 3.59197Q4.19389 3.19602 3.30966 3.19602L1.76136 3.19602L1.76136 6.05114ZM7.27273 9.6875L7.27273 2.41477L11.6619 2.41477L11.6619 3.19602L8.15341 3.19602L8.15341 5.65341L11.4347 5.65341L11.4347 6.43466L8.15341 6.43466L8.15341 8.90625L11.7188 8.90625L11.7188 9.6875L7.27273 9.6875ZM19.1051 4.6875L18.2244 4.6875Q18.1179 4.18324 17.8161 3.83878Q17.5142 3.49432 17.0881 3.31676Q16.6619 3.1392 16.179 3.1392Q15.5185 3.1392 14.984 3.47301Q14.4496 3.80682 14.1353 4.45668Q13.821 5.10653 13.821 6.05114Q13.821 6.99574 14.1353 7.6456Q14.4496 8.29545 14.984 8.62926Q15.5185 8.96307 16.179 8.96307Q16.6619 8.96307 17.0881 8.78551Q17.5142 8.60795 17.8161 8.26349Q18.1179 7.91903 18.2244 7.41477L19.1051 7.41477Q18.9702 8.16051 18.5547 8.69141Q18.1392 9.2223 17.5249 9.50462Q16.9105 9.78693 16.179 9.78693Q15.2486 9.78693 14.5241 9.33239Q13.7997 8.87784 13.3842 8.03977Q12.9688 7.2017 12.9688 6.05114Q12.9688 4.90057 13.3842 4.0625Q13.7997 3.22443 14.5241 2.76989Q15.2486 2.31534 16.179 2.31534Q16.9105 2.31534 17.5249 2.59766Q18.1392 2.87997 18.5547 3.41087Q18.9702 3.94176 19.1051 4.6875Z" style="fill:#FFFFFF;fill-opacity:0.498;" />
    </g>
    <g style="mix-blend-mode:normal;" transform="translate(0 41)">
      <path d="M4.85795 4.23295Q4.79403 3.69318 4.33949 3.39489Q3.88494 3.09659 3.22443 3.09659Q2.5 3.09659 2.05966 3.43928Q1.61932 3.78196 1.61932 4.30398Q1.61932 4.6946 1.85902 4.9343Q2.09872 5.17401 2.4272 5.30717Q2.75568 5.44034 3.02557 5.51136L3.7642 5.71023Q4.0483 5.7848 4.39808 5.91619Q4.74787 6.04759 5.06925 6.27308Q5.39062 6.49858 5.60014 6.85014Q5.80966 7.2017 5.80966 7.71307Q5.80966 8.30256 5.50249 8.77841Q5.19531 9.25426 4.6076 9.5348Q4.01989 9.81534 3.18182 9.81534Q2.00994 9.81534 1.32102 9.26136Q0.632102 8.70739 0.568182 7.8125L1.47727 7.8125Q1.51278 8.22443 1.75604 8.49254Q1.99929 8.76065 2.37393 8.89027Q2.74858 9.01989 3.18182 9.01989Q3.68608 9.01989 4.08736 8.85476Q4.48864 8.68963 4.72301 8.39311Q4.95739 8.09659 4.95739 7.69886Q4.95739 7.33665 4.75497 7.10938Q4.55256 6.8821 4.2223 6.74006Q3.89205 6.59801 3.50852 6.49148L2.61364 6.2358Q1.76136 5.99077 1.2642 5.53622Q0.767045 5.08168 0.767045 4.34659Q0.767045 3.7358 1.09908 3.27947Q1.43111 2.82315 1.99396 2.56925Q2.55682 2.31534 3.25284 2.31534Q3.95597 2.31534 4.50284 2.5657Q5.04972 2.81605 5.37109 3.24929Q5.69247 3.68253 5.71023 4.23295L4.85795 4.23295ZM7.25852 9.6875L7.25852 2.41477L9.71591 2.41477Q10.5717 2.41477 11.1168 2.72195Q11.6619 3.02912 11.9247 3.55114Q12.1875 4.07315 12.1875 4.71591Q12.1875 5.35866 11.9265 5.88423Q11.6655 6.4098 11.1222 6.72053Q10.5788 7.03125 9.73011 7.03125L8.1392 7.03125L8.1392 9.6875L7.25852 9.6875ZM8.1392 6.25L9.7017 6.25Q10.5788 6.25 10.9499 5.80966Q11.321 5.36932 11.321 4.71591Q11.321 4.05895 10.9482 3.62749Q10.5753 3.19602 9.6875 3.19602L8.1392 3.19602L8.1392 6.25ZM13.608 9.6875L13.608 2.41477L14.4886 2.41477L14.4886 8.90625L17.8693 8.90625L17.8693 9.6875L13.608 9.6875Z" style="fill:#FFFFFF;fill-opacity:0.498;" />
    </g>
  </g>
</svg>